# xmcd
#
# Track frame offsets:
#	150
#	12915
#	21057
#	37162
#	45448
#	59025
#	69908
#	78194
#	83293
#	92891
#	103515
#	117224
#
# Disc length: 1743 seconds
#
# Revision: 1
# Processed by: cddbd v1.5PL3 Copyright (c) Steve Scherf et al.
# Submitted via: EasyCDDAExtractor 7.0.4.1
#
DISCID=8906cd0c
DTITLE=Billie Holliday - Lady Sings The Blues
DYEAR=1900
DGENRE=Blues
TTITLE0=My Man
TTITLE1=Them There Eyes
TTITLE2=I Cover The Waterfront
TTITLE3=Lover Come Back To Me
TTITLE4=They Can't Take That Away From Me
TTITLE5=Don'r Explain
TTITLE6=Do You Know what It Means
TTITLE7=Storyville
TTITLE8=Blues Are Bluer
TTITLE9=Road To Love
TTITLE10=I Can't Pretend
TTITLE11=Untill The Real Thing Comes Along
EXTD=
EXTT0=
EXTT1=
EXTT2=
EXTT3=
EXTT4=
EXTT5=
EXTT6=
EXTT7=
EXTT8=
EXTT9=
EXTT10=
EXTT11=
PLAYORDER=
